<svg width="1543" height="858" viewBox="0 0 1543 858" fill="none" xmlns="http://www.w3.org/2000/svg">
<mask id="path-1-outside-1_126_76" maskUnits="userSpaceOnUse" x="103" y="578" width="1350" height="283" fill="black">
<rect fill="white" x="103" y="578" width="1350" height="283"/>
<path d="M113.028 847V592.455H222.9C241.793 592.455 258.323 596.183 272.492 603.641C286.661 611.098 297.682 621.58 305.553 635.086C313.425 648.592 317.361 664.377 317.361 682.44C317.361 700.67 313.301 716.454 305.18 729.795C297.143 743.135 285.833 753.41 271.249 760.619C256.749 767.827 239.804 771.432 220.415 771.432H154.79V717.739H206.494C214.614 717.739 221.533 716.33 227.251 713.513C233.051 710.613 237.484 706.511 240.55 701.208C243.698 695.905 245.273 689.649 245.273 682.44C245.273 675.149 243.698 668.934 240.55 663.797C237.484 658.577 233.051 654.599 227.251 651.865C221.533 649.048 214.614 647.639 206.494 647.639H182.133V847H113.028ZM411.821 592.455V847H342.716V592.455H411.821ZM682.213 687.909H612.114C611.617 682.109 610.291 676.847 608.137 672.124C606.065 667.401 603.165 663.341 599.436 659.944C595.791 656.464 591.358 653.812 586.137 651.989C580.917 650.084 574.993 649.131 568.364 649.131C556.764 649.131 546.945 651.948 538.907 657.582C530.953 663.217 524.904 671.296 520.761 681.819C516.701 692.342 514.671 704.978 514.671 719.727C514.671 735.305 516.742 748.355 520.885 758.879C525.111 769.319 531.201 777.191 539.156 782.494C547.11 787.714 556.681 790.324 567.867 790.324C574.247 790.324 579.964 789.537 585.019 787.962C590.073 786.305 594.465 783.944 598.193 780.878C601.922 777.812 604.947 774.125 607.267 769.816C609.67 765.424 611.285 760.494 612.114 755.026L682.213 755.523C681.385 766.295 678.36 777.273 673.14 788.46C667.92 799.563 660.504 809.837 650.892 819.283C641.363 828.647 629.556 836.187 615.47 841.904C601.384 847.621 585.019 850.48 566.375 850.48C543.009 850.48 522.045 845.467 503.485 835.441C485.007 825.415 470.382 810.666 459.61 791.194C448.921 771.722 443.577 747.9 443.577 719.727C443.577 691.389 449.046 667.526 459.983 648.136C470.921 628.664 485.67 613.957 504.23 604.013C522.791 593.987 543.506 588.974 566.375 588.974C582.45 588.974 597.241 591.17 610.747 595.562C624.253 599.953 636.102 606.375 646.294 614.827C656.485 623.196 664.688 633.512 670.903 645.775C677.117 658.038 680.888 672.083 682.213 687.909ZM713.565 847V592.455H782.671V691.886H874.148V592.455H943.253V847H874.148V747.568H782.671V847H713.565ZM969.105 648.136V592.455H1190.34V648.136H1113.78V847H1045.67V648.136H969.105ZM1250.34 847H1175.77L1259.79 592.455H1354.25L1438.27 847H1363.69L1308.01 662.554H1306.02L1250.34 847ZM1236.42 746.574H1376.62V798.278H1236.42V746.574Z"/>
</mask>
<path d="M113.028 847H103.028V857H113.028V847ZM113.028 592.455V582.455H103.028V592.455H113.028ZM272.492 603.641L267.835 612.49L267.835 612.49L272.492 603.641ZM305.553 635.086L314.193 630.051L305.553 635.086ZM305.18 729.795L296.638 724.595L296.626 724.615L296.615 724.634L305.18 729.795ZM271.249 760.619L266.818 751.654L266.808 751.659L266.798 751.664L271.249 760.619ZM154.79 771.432H144.79V781.432H154.79V771.432ZM154.79 717.739V707.739H144.79V717.739H154.79ZM227.251 713.513L231.671 722.483L231.697 722.47L231.723 722.457L227.251 713.513ZM240.55 701.208L231.951 696.103L231.921 696.153L231.892 696.203L240.55 701.208ZM240.55 663.797L231.927 668.861L231.974 668.942L232.024 669.023L240.55 663.797ZM227.251 651.865L222.831 660.835L222.908 660.873L222.986 660.91L227.251 651.865ZM182.133 647.639V637.639H172.133V647.639H182.133ZM182.133 847V857H192.133V847H182.133ZM123.028 847V592.455H103.028V847H123.028ZM113.028 602.455H222.9V582.455H113.028V602.455ZM222.9 602.455C240.461 602.455 255.339 605.913 267.835 612.49L277.15 594.791C261.307 586.453 243.124 582.455 222.9 582.455V602.455ZM267.835 612.49C280.388 619.097 290.009 628.275 296.913 640.121L314.193 630.051C305.354 614.884 292.935 603.099 277.15 594.791L267.835 612.49ZM296.913 640.121C303.764 651.875 307.361 665.867 307.361 682.44H327.361C327.361 662.886 323.086 645.309 314.193 630.051L296.913 640.121ZM307.361 682.44C307.361 699.147 303.655 713.068 296.638 724.595L313.722 734.994C322.946 719.841 327.361 702.192 327.361 682.44H307.361ZM296.615 724.634C289.609 736.263 279.768 745.252 266.818 751.654L275.681 769.583C291.897 761.567 304.677 750.008 313.746 734.955L296.615 724.634ZM266.798 751.664C253.927 758.062 238.561 761.432 220.415 761.432V781.432C241.047 781.432 259.57 777.592 275.701 769.573L266.798 751.664ZM220.415 761.432H154.79V781.432H220.415V761.432ZM164.79 771.432V717.739H144.79V771.432H164.79ZM154.79 727.739H206.494V707.739H154.79V727.739ZM206.494 727.739C215.74 727.739 224.255 726.137 231.671 722.483L222.831 704.543C218.812 706.523 213.489 707.739 206.494 707.739V727.739ZM231.723 722.457C239.165 718.736 245.103 713.312 249.207 706.213L231.892 696.203C229.865 699.71 226.936 702.49 222.778 704.569L231.723 722.457ZM249.148 706.313C253.359 699.221 255.273 691.139 255.273 682.44H235.273C235.273 688.159 234.037 692.589 231.951 696.103L249.148 706.313ZM255.273 682.44C255.273 673.693 253.373 665.583 249.076 658.571L232.024 669.023C234.024 672.286 235.273 676.604 235.273 682.44H255.273ZM249.172 658.733C245.026 651.672 239.022 646.359 231.515 642.82L222.986 660.91C227.08 662.84 229.942 665.482 231.927 668.861L249.172 658.733ZM231.671 642.895C224.255 639.241 215.74 637.639 206.494 637.639V657.639C213.489 657.639 218.812 658.855 222.831 660.835L231.671 642.895ZM206.494 637.639H182.133V657.639H206.494V637.639ZM172.133 647.639V847H192.133V647.639H172.133ZM182.133 837H113.028V857H182.133V837ZM411.821 592.455H421.821V582.455H411.821V592.455ZM411.821 847V857H421.821V847H411.821ZM342.716 847H332.716V857H342.716V847ZM342.716 592.455V582.455H332.716V592.455H342.716ZM401.821 592.455V847H421.821V592.455H401.821ZM411.821 837H342.716V857H411.821V837ZM352.716 847V592.455H332.716V847H352.716ZM342.716 602.455H411.821V582.455H342.716V602.455ZM682.213 687.909V697.909H693.086L692.178 687.074L682.213 687.909ZM612.114 687.909L602.15 688.763L602.934 697.909H612.114V687.909ZM608.137 672.124L598.979 676.141L599.008 676.208L599.038 676.274L608.137 672.124ZM599.436 659.944L592.532 667.177L592.616 667.258L592.701 667.336L599.436 659.944ZM586.137 651.989L582.708 661.383L582.774 661.407L582.841 661.43L586.137 651.989ZM538.907 657.582L533.167 649.394L533.147 649.408L533.127 649.422L538.907 657.582ZM520.761 681.819L511.456 678.156L511.444 678.187L511.431 678.219L520.761 681.819ZM520.885 758.879L511.58 762.542L511.598 762.586L511.616 762.63L520.885 758.879ZM539.156 782.494L533.609 790.814L533.639 790.834L533.669 790.854L539.156 782.494ZM585.019 787.962L587.993 797.51L588.064 797.488L588.134 797.465L585.019 787.962ZM598.193 780.878L604.544 788.602L598.193 780.878ZM607.267 769.816L598.494 765.016L598.478 765.045L598.462 765.075L607.267 769.816ZM612.114 755.026L612.185 745.026L603.524 744.964L602.227 753.528L612.114 755.026ZM682.213 755.523L692.184 756.29L693.006 745.599L682.284 745.523L682.213 755.523ZM673.14 788.46L682.19 792.714L682.196 792.701L682.202 792.688L673.14 788.46ZM650.892 819.283L657.901 826.416L657.902 826.416L650.892 819.283ZM615.47 841.904L611.709 832.638L615.47 841.904ZM503.485 835.441L498.715 844.231L498.724 844.235L498.732 844.239L503.485 835.441ZM459.61 791.194L450.844 796.006L450.852 796.02L450.86 796.035L459.61 791.194ZM459.983 648.136L468.693 653.05L468.697 653.042L468.702 653.034L459.983 648.136ZM504.23 604.013L508.953 612.828L508.968 612.82L508.983 612.812L504.23 604.013ZM610.747 595.562L613.839 586.052L613.839 586.052L610.747 595.562ZM646.294 614.827L639.91 622.524L639.929 622.54L639.948 622.555L646.294 614.827ZM670.903 645.775L661.983 650.295V650.295L670.903 645.775ZM682.213 677.909H612.114V697.909H682.213V677.909ZM622.077 687.055C621.494 680.252 619.918 673.857 617.235 667.974L599.038 676.274C600.664 679.838 601.739 683.966 602.15 688.763L622.077 687.055ZM617.294 668.108C614.674 662.132 610.959 656.914 606.171 652.552L592.701 667.336C595.372 669.769 597.457 672.671 598.979 676.141L617.294 668.108ZM606.341 652.71C601.567 648.153 595.869 644.795 589.434 642.548L582.841 661.43C586.846 662.829 590.014 664.774 592.532 667.177L606.341 652.71ZM589.567 642.596C583.059 640.22 575.943 639.131 568.364 639.131V659.131C574.043 659.131 578.776 659.947 582.708 661.383L589.567 642.596ZM568.364 639.131C555.092 639.131 543.175 642.378 533.167 649.394L544.648 665.771C550.714 661.518 558.435 659.131 568.364 659.131V639.131ZM533.127 649.422C523.344 656.352 516.195 666.119 511.456 678.156L530.066 685.482C533.613 676.472 538.562 670.082 544.687 665.743L533.127 649.422ZM511.431 678.219C506.815 690.184 504.671 704.106 504.671 719.727H524.671C524.671 705.85 526.587 694.5 530.091 685.419L511.431 678.219ZM504.671 719.727C504.671 736.118 506.84 750.502 511.58 762.542L530.19 755.215C526.644 746.209 524.671 734.492 524.671 719.727H504.671ZM511.616 762.63C516.458 774.594 523.702 784.21 533.609 790.814L544.703 774.173C538.701 770.172 533.764 764.044 530.155 755.127L511.616 762.63ZM533.669 790.854C543.523 797.321 555.08 800.324 567.867 800.324V780.324C558.281 780.324 550.698 778.107 544.642 774.133L533.669 790.854ZM567.867 800.324C575.056 800.324 581.802 799.438 587.993 797.51L582.045 778.415C578.127 779.635 573.438 780.324 567.867 780.324V800.324ZM588.134 797.465C594.248 795.46 599.764 792.533 604.544 788.602L591.842 773.154C589.166 775.354 585.898 777.15 581.903 778.46L588.134 797.465ZM604.544 788.602C609.291 784.699 613.144 779.994 616.071 774.557L598.462 765.075C596.749 768.255 594.553 770.925 591.842 773.154L604.544 788.602ZM616.039 774.616C619.06 769.095 621.015 763.029 622.001 756.524L602.227 753.528C601.555 757.96 600.279 761.753 598.494 765.016L616.039 774.616ZM612.043 765.025L682.142 765.522L682.284 745.523L612.185 745.026L612.043 765.025ZM672.243 754.756C671.519 764.17 668.862 773.981 664.078 784.231L682.202 792.688C687.859 780.566 691.251 768.419 692.184 756.29L672.243 754.756ZM664.09 784.205C659.422 794.135 652.733 803.454 643.883 812.151L657.902 826.416C668.276 816.221 676.418 804.991 682.19 792.714L664.09 784.205ZM643.884 812.151C635.407 820.479 624.75 827.345 611.709 832.638L619.231 851.17C634.362 845.028 647.32 836.814 657.901 826.416L643.884 812.151ZM611.709 832.638C599.054 837.775 584.013 840.48 566.375 840.48V860.48C586.025 860.48 603.713 857.468 619.231 851.17L611.709 832.638ZM566.375 840.48C544.486 840.48 525.186 835.798 508.237 826.643L498.732 844.239C518.905 855.136 541.531 860.48 566.375 860.48V840.48ZM508.254 826.652C491.553 817.589 478.266 804.259 468.361 786.353L450.86 796.035C462.498 817.073 478.461 833.241 498.715 844.231L508.254 826.652ZM468.376 786.382C458.686 768.729 453.577 746.659 453.577 719.727H433.577C433.577 749.14 439.157 774.715 450.844 796.006L468.376 786.382ZM453.577 719.727C453.577 692.65 458.802 670.584 468.693 653.05L451.273 643.223C439.289 664.467 433.577 690.128 433.577 719.727H453.577ZM468.702 653.034C478.766 635.116 492.173 621.817 508.953 612.828L499.508 595.199C479.166 606.096 463.075 622.213 451.264 643.239L468.702 653.034ZM508.983 612.812C525.963 603.64 545.022 598.974 566.375 598.974V578.974C541.99 578.974 519.619 584.335 499.478 595.215L508.983 612.812ZM566.375 598.974C581.536 598.974 595.269 601.044 607.655 605.072L613.839 586.052C599.212 581.296 583.364 578.974 566.375 578.974V598.974ZM607.655 605.072C620.047 609.101 630.76 614.936 639.91 622.524L652.677 607.129C641.444 597.814 628.459 590.806 613.839 586.052L607.655 605.072ZM639.948 622.555C649.023 630.007 656.368 639.214 661.983 650.295L679.823 641.255C673.009 627.809 663.948 616.384 652.64 607.098L639.948 622.555ZM661.983 650.295C667.532 661.245 671.014 674.005 672.248 688.744L692.178 687.074C690.762 670.161 686.703 654.832 679.823 641.255L661.983 650.295ZM713.565 847H703.565V857H713.565V847ZM713.565 592.455V582.455H703.565V592.455H713.565ZM782.671 592.455H792.671V582.455H782.671V592.455ZM782.671 691.886H772.671V701.886H782.671V691.886ZM874.148 691.886V701.886H884.148V691.886H874.148ZM874.148 592.455V582.455H864.148V592.455H874.148ZM943.253 592.455H953.253V582.455H943.253V592.455ZM943.253 847V857H953.253V847H943.253ZM874.148 847H864.148V857H874.148V847ZM874.148 747.568H884.148V737.568H874.148V747.568ZM782.671 747.568V737.568H772.671V747.568H782.671ZM782.671 847V857H792.671V847H782.671ZM723.565 847V592.455H703.565V847H723.565ZM713.565 602.455H782.671V582.455H713.565V602.455ZM772.671 592.455V691.886H792.671V592.455H772.671ZM782.671 701.886H874.148V681.886H782.671V701.886ZM884.148 691.886V592.455H864.148V691.886H884.148ZM874.148 602.455H943.253V582.455H874.148V602.455ZM933.253 592.455V847H953.253V592.455H933.253ZM943.253 837H874.148V857H943.253V837ZM884.148 847V747.568H864.148V847H884.148ZM874.148 737.568H782.671V757.568H874.148V737.568ZM772.671 747.568V847H792.671V747.568H772.671ZM782.671 837H713.565V857H782.671V837ZM969.105 648.136H959.105V658.136H969.105V648.136ZM969.105 592.455V582.455H959.105V592.455H969.105ZM1190.34 592.455H1200.34V582.455H1190.34V592.455ZM1190.34 648.136V658.136H1200.34V648.136H1190.34ZM1113.78 648.136V638.136H1103.78V648.136H1113.78ZM1113.78 847V857H1123.78V847H1113.78ZM1045.67 847H1035.67V857H1045.67V847ZM1045.67 648.136H1055.67V638.136H1045.67V648.136ZM979.105 648.136V592.455H959.105V648.136H979.105ZM969.105 602.455H1190.34V582.455H969.105V602.455ZM1180.34 592.455V648.136H1200.34V592.455H1180.34ZM1190.34 638.136H1113.78V658.136H1190.34V638.136ZM1103.78 648.136V847H1123.78V648.136H1103.78ZM1113.78 837H1045.67V857H1113.78V837ZM1055.67 847V648.136H1035.67V847H1055.67ZM1045.67 638.136H969.105V658.136H1045.67V638.136ZM1250.34 847V857H1257.77L1259.92 849.89L1250.34 847ZM1175.77 847L1166.27 843.866L1161.94 857H1175.77V847ZM1259.79 592.455V582.455H1252.56L1250.29 589.32L1259.79 592.455ZM1354.25 592.455L1363.74 589.32L1361.48 582.455H1354.25V592.455ZM1438.27 847V857H1452.1L1447.76 843.866L1438.27 847ZM1363.69 847L1354.12 849.89L1356.27 857H1363.69V847ZM1308.01 662.554L1317.59 659.664L1315.44 652.554H1308.01V662.554ZM1306.02 662.554V652.554H1298.6L1296.45 659.664L1306.02 662.554ZM1236.42 746.574V736.574H1226.42V746.574H1236.42ZM1376.62 746.574H1386.62V736.574H1376.62V746.574ZM1376.62 798.278V808.278H1386.62V798.278H1376.62ZM1236.42 798.278H1226.42V808.278H1236.42V798.278ZM1250.34 837H1175.77V857H1250.34V837ZM1185.26 850.134L1269.28 595.589L1250.29 589.32L1166.27 843.866L1185.26 850.134ZM1259.79 602.455H1354.25V582.455H1259.79V602.455ZM1344.75 595.589L1428.77 850.134L1447.76 843.866L1363.74 589.32L1344.75 595.589ZM1438.27 837H1363.69V857H1438.27V837ZM1373.27 844.11L1317.59 659.664L1298.44 665.444L1354.12 849.89L1373.27 844.11ZM1308.01 652.554H1306.02V672.554H1308.01V652.554ZM1296.45 659.664L1240.77 844.11L1259.92 849.89L1315.6 665.444L1296.45 659.664ZM1236.42 756.574H1376.62V736.574H1236.42V756.574ZM1366.62 746.574V798.278H1386.62V746.574H1366.62ZM1376.62 788.278H1236.42V808.278H1376.62V788.278ZM1246.42 798.278V746.574H1226.42V798.278H1246.42Z" fill="#17C964" mask="url(#path-1-outside-1_126_76)"/>
<path d="M917.982 302.999C901.244 302.991 884.978 308.554 871.751 318.812L817.046 276.203C821.176 266.735 823.303 256.516 823.295 246.187C823.295 244.435 823.295 242.684 823.106 240.955L854.423 230.516C864.332 245.797 879.414 256.997 896.907 262.064C914.4 267.132 933.133 265.727 949.674 258.107C966.216 250.488 979.459 237.164 986.977 220.575C994.495 203.987 995.785 185.246 990.611 167.784C985.437 150.323 974.145 135.31 958.803 125.495C943.462 115.681 925.098 111.722 907.075 114.345C889.053 116.967 872.578 125.995 860.67 139.774C848.761 153.554 842.216 171.162 842.232 189.374C842.232 191.126 842.233 192.878 842.422 194.606L811.104 205.045C804.239 194.432 794.826 185.705 783.725 179.66C772.623 173.615 760.186 170.444 747.545 170.437C743.365 170.446 739.193 170.794 735.07 171.479L718.878 134.929C732.859 123.758 742.434 107.998 745.905 90.4423C749.376 72.8863 746.519 54.6683 737.841 39.0177C729.163 23.3666 715.225 11.2935 698.495 4.93795C681.766 -1.41755 663.327 -1.64505 646.446 4.29595C629.565 10.2369 615.333 21.9626 606.272 37.3947C597.21 52.8272 593.905 70.9692 596.942 88.6052C599.979 106.241 609.162 122.232 622.863 133.745C636.565 145.257 653.899 151.547 671.795 151.499C675.975 151.491 680.147 151.142 684.27 150.458L700.462 186.913C686.731 197.78 677.201 213.079 673.501 230.194C669.8 247.31 672.16 265.179 680.175 280.748L619.314 334.814C603.998 324.489 585.442 320.104 567.124 322.481C548.806 324.859 531.985 333.835 519.812 347.728C507.639 361.621 500.95 379.476 501 397.948C501.05 416.419 507.835 434.238 520.084 448.065C532.332 461.892 549.202 470.777 567.532 473.055C585.863 475.333 604.395 470.847 619.655 460.439C634.915 450.031 645.855 434.415 650.425 416.517C654.994 398.62 652.88 379.671 644.478 363.221L705.338 309.154C718.515 318.027 734.155 322.519 750.032 321.992C765.909 321.465 781.216 315.946 793.776 306.219L848.482 348.828C844.365 358.267 842.237 368.452 842.232 378.749C842.232 393.731 846.675 408.377 854.999 420.834C863.322 433.291 875.153 443 888.994 448.733C902.836 454.467 918.067 455.967 932.761 453.044C947.455 450.121 960.952 442.907 971.546 432.313C982.14 421.719 989.354 408.222 992.277 393.528C995.2 378.833 993.7 363.603 987.966 349.761C982.233 335.92 972.524 324.089 960.067 315.766C947.61 307.442 932.964 302.999 917.982 302.999ZM917.982 151.499C925.473 151.499 932.796 153.721 939.025 157.883C945.253 162.044 950.108 167.96 952.974 174.88C955.841 181.801 956.591 189.416 955.13 196.763C953.668 204.111 950.061 210.859 944.764 216.156C939.467 221.453 932.719 225.06 925.372 226.522C918.025 227.983 910.409 227.233 903.488 224.366C896.568 221.5 890.652 216.645 886.491 210.417C882.329 204.188 880.107 196.865 880.107 189.374C880.107 179.329 884.098 169.696 891.201 162.593C898.304 155.49 907.937 151.499 917.982 151.499ZM633.92 75.7492C633.92 68.2592 636.141 60.9362 640.303 54.7072C644.465 48.4792 650.38 43.6243 657.301 40.7578C664.222 37.8912 671.837 37.1411 679.184 38.6025C686.531 40.0639 693.28 43.6712 698.577 48.9683C703.874 54.2653 707.481 61.0132 708.942 68.3602C710.404 75.7072 709.654 83.3233 706.787 90.2443C703.92 97.1643 699.066 103.08 692.837 107.241C686.609 111.403 679.286 113.624 671.795 113.624C661.75 113.624 652.116 109.634 645.013 102.531C637.91 95.4282 633.92 85.7952 633.92 75.7492ZM577.107 435.562C569.617 435.562 562.294 433.341 556.065 429.179C549.837 425.017 544.982 419.102 542.116 412.181C539.249 405.26 538.499 397.645 539.961 390.298C541.422 382.951 545.029 376.202 550.326 370.905C555.623 365.608 562.371 362.001 569.718 360.54C577.065 359.078 584.681 359.828 591.602 362.695C598.522 365.562 604.438 370.416 608.599 376.645C612.761 382.873 614.982 390.196 614.982 397.687C614.982 407.732 610.992 417.366 603.889 424.469C596.786 431.572 587.153 435.562 577.107 435.562ZM709.67 246.187C709.67 238.696 711.891 231.373 716.053 225.145C720.215 218.916 726.13 214.062 733.051 211.195C739.972 208.328 747.587 207.578 754.934 209.04C762.281 210.501 769.03 214.108 774.327 219.405C779.624 224.702 783.231 231.451 784.692 238.798C786.154 246.145 785.404 253.76 782.537 260.681C779.67 267.602 774.816 273.517 768.587 277.679C762.359 281.841 755.036 284.062 747.545 284.062C737.5 284.062 727.866 280.072 720.763 272.969C713.66 265.866 709.67 256.232 709.67 246.187ZM917.982 416.624C910.492 416.624 903.169 414.403 896.94 410.241C890.712 406.08 885.857 400.164 882.991 393.244C880.124 386.323 879.374 378.707 880.835 371.36C882.297 364.013 885.904 357.265 891.201 351.968C896.498 346.671 903.246 343.064 910.593 341.602C917.94 340.141 925.556 340.891 932.477 343.758C939.397 346.624 945.313 351.479 949.474 357.707C953.636 363.936 955.857 371.258 955.857 378.749C955.857 388.795 951.867 398.428 944.764 405.531C937.661 412.634 928.028 416.624 917.982 416.624Z" fill="#17C964"/>
</svg>
