<svg width="606" height="606" viewBox="0 0 606 606" fill="none" xmlns="http://www.w3.org/2000/svg">
<path d="M473.437 359.812C456.699 359.804 440.433 365.367 427.206 375.625L372.501 333.016C376.631 323.548 378.758 313.329 378.75 303C378.75 301.248 378.75 299.497 378.561 297.768L409.878 287.329C419.787 302.61 434.869 313.81 452.362 318.877C469.855 323.945 488.588 322.54 505.129 314.92C521.671 307.301 534.914 293.977 542.432 277.388C549.95 260.8 551.24 242.059 546.066 224.597C540.892 207.136 529.6 192.123 514.258 182.308C498.917 172.494 480.553 168.535 462.53 171.158C444.508 173.78 428.033 182.808 416.125 196.587C404.216 210.367 397.671 227.975 397.687 246.187C397.687 247.939 397.688 249.691 397.877 251.419L366.559 261.858C359.694 251.245 350.281 242.518 339.18 236.473C328.078 230.428 315.641 227.257 303 227.25C298.82 227.259 294.648 227.607 290.525 228.292L274.333 191.742C288.314 180.571 297.889 164.811 301.36 147.255C304.831 129.699 301.974 111.481 293.296 95.8304C284.618 80.1794 270.68 68.1062 253.95 61.7507C237.221 55.3952 218.782 55.1677 201.901 61.1087C185.02 67.0497 170.788 78.7754 161.727 94.2075C152.665 109.64 149.36 127.782 152.397 145.418C155.434 163.054 164.617 179.045 178.318 190.558C192.02 202.07 209.354 208.36 227.25 208.312C231.43 208.304 235.602 207.955 239.725 207.271L255.917 243.726C242.186 254.593 232.656 269.892 228.956 287.007C225.255 304.123 227.615 321.992 235.63 337.561L174.769 391.627C159.453 381.302 140.897 376.917 122.579 379.294C104.261 381.672 87.4394 390.648 75.2663 404.541C63.0932 418.434 56.4049 436.289 56.4549 454.761C56.505 473.232 63.29 491.051 75.5382 504.878C87.7863 518.705 104.657 527.59 122.987 529.868C141.318 532.146 159.85 527.66 175.11 517.252C190.37 506.844 201.31 491.228 205.88 473.33C210.449 455.433 208.335 436.484 199.933 420.034L260.793 365.967C273.97 374.84 289.61 379.332 305.487 378.805C321.364 378.278 336.671 372.759 349.231 363.032L403.937 405.641C399.82 415.08 397.692 425.265 397.687 435.562C397.687 450.544 402.13 465.19 410.454 477.647C418.777 490.104 430.608 499.813 444.449 505.546C458.291 511.28 473.522 512.78 488.216 509.857C502.91 506.934 516.407 499.72 527.001 489.126C537.595 478.532 544.809 465.035 547.732 450.341C550.655 435.646 549.155 420.416 543.421 406.574C537.688 392.733 527.979 380.902 515.522 372.579C503.065 364.255 488.419 359.812 473.437 359.812ZM473.437 208.312C480.928 208.312 488.251 210.534 494.48 214.696C500.708 218.857 505.563 224.773 508.429 231.693C511.296 238.614 512.046 246.229 510.585 253.576C509.123 260.924 505.516 267.672 500.219 272.969C494.922 278.266 488.174 281.873 480.827 283.335C473.48 284.796 465.864 284.046 458.943 281.179C452.023 278.313 446.107 273.458 441.946 267.23C437.784 261.001 435.562 253.678 435.562 246.187C435.562 236.142 439.553 226.509 446.656 219.406C453.759 212.303 463.392 208.312 473.437 208.312ZM189.375 132.562C189.375 125.072 191.596 117.749 195.758 111.52C199.92 105.292 205.835 100.437 212.756 97.5705C219.677 94.7039 227.292 93.9538 234.639 95.4152C241.986 96.8766 248.735 100.484 254.032 105.781C259.329 111.078 262.936 117.826 264.397 125.173C265.859 132.52 265.109 140.136 262.242 147.057C259.375 153.977 254.521 159.893 248.292 164.054C242.064 168.216 234.741 170.437 227.25 170.437C217.205 170.437 207.571 166.447 200.468 159.344C193.365 152.241 189.375 142.608 189.375 132.562ZM132.562 492.375C125.072 492.375 117.749 490.154 111.52 485.992C105.292 481.83 100.437 475.915 97.5705 468.994C94.7039 462.073 93.9538 454.458 95.4152 447.111C96.8767 439.764 100.484 433.015 105.781 427.718C111.078 422.421 117.826 418.814 125.173 417.353C132.52 415.891 140.136 416.641 147.057 419.508C153.977 422.375 159.893 427.229 164.054 433.458C168.216 439.686 170.437 447.009 170.437 454.5C170.437 464.545 166.447 474.179 159.344 481.282C152.241 488.385 142.608 492.375 132.562 492.375ZM265.125 303C265.125 295.509 267.346 288.186 271.508 281.958C275.67 275.729 281.585 270.875 288.506 268.008C295.427 265.141 303.042 264.391 310.389 265.853C317.736 267.314 324.485 270.921 329.782 276.218C335.079 281.515 338.686 288.264 340.147 295.611C341.609 302.958 340.859 310.573 337.992 317.494C335.125 324.415 330.271 330.33 324.042 334.492C317.814 338.654 310.491 340.875 303 340.875C292.955 340.875 283.321 336.885 276.218 329.782C269.115 322.679 265.125 313.045 265.125 303ZM473.437 473.437C465.947 473.437 458.624 471.216 452.395 467.054C446.167 462.893 441.312 456.977 438.446 450.057C435.579 443.136 434.829 435.52 436.29 428.173C437.752 420.826 441.359 414.078 446.656 408.781C451.953 403.484 458.701 399.877 466.048 398.415C473.395 396.954 481.011 397.704 487.932 400.571C494.852 403.437 500.768 408.292 504.929 414.52C509.091 420.749 511.312 428.071 511.312 435.562C511.312 445.608 507.322 455.241 500.219 462.344C493.116 469.447 483.483 473.437 473.437 473.437Z" fill="#17C964"/>
</svg>
